<?xml version="1.0" encoding="UTF-8"?>
<svg width="29px" height="18px" viewBox="0 0 29 18" version="1.1" xmlns="http://www.w3.org/2000/svg" xmlns:xlink="http://www.w3.org/1999/xlink">
    <!-- Generator: Sketch 51.3 (57544) - http://www.bohemiancoding.com/sketch -->
    <title>card_visa</title>
    <desc>Created with Sketch.</desc>
    <defs></defs>
    <g id="Page-1" stroke="none" stroke-width="1" fill="none" fill-rule="evenodd">
        <g id="icon-credit-cards" transform="translate(-107.000000, 0.000000)" fill-rule="nonzero">
            <g id="card_visa" transform="translate(107.438000, 0.000000)">
                <rect id="Rectangle-path" fill="#F7F7F7" x="0" y="0" width="28.125" height="18" rx="4"></rect>
                <path d="M1.696,0 C0.759,0 0,0.749 0,1.688 L0,3.375 L28.125,3.375 L28.125,1.687 C28.125,0.756 27.373,0 26.429,0 L1.696,0 Z" id="Shape" fill="#575DC1"></path>
                <path d="M0,14.625 L0,16.313 C0,17.244 0.752,18 1.696,18 L26.429,18 C27.366,18 28.125,17.251 28.125,16.312 L28.125,14.625 L0,14.625 Z" id="Shape" fill="#EBAA3E"></path>
                <g id="Group" transform="translate(6.000000, 6.000000)" fill="#5565AF">
                    <path d="M2.052,4.898 C2.244,4.373 2.38,4.036 2.46,3.888 L4.062,0.75 L5.234,0.75 L2.46,5.964 L1.22,5.964 L0.75,0.75 L1.844,0.75 L2.034,3.888 C2.043,3.995 2.048,4.154 2.048,4.363 C2.04551755,4.54149978 2.03818151,4.71989906 2.026,4.898 L2.052,4.898 Z M5.023,5.964 L6.18,0.75 L7.311,0.75 L6.154,5.964 L5.023,5.964 Z M10.753,4.499 C10.753,4.996 10.569,5.389 10.203,5.677 C9.838,5.967 9.342,6.11 8.716,6.11 C8.17,6.11 7.73,6.004 7.396,5.79 L7.396,4.812 C7.873,5.069 8.316,5.197 8.724,5.197 C9,5.197 9.217,5.147 9.373,5.046 C9.52084496,4.96020295 9.61045198,4.80090158 9.607,4.63 C9.60873111,4.5378718 9.59172015,4.44635287 9.557,4.361 C9.52162405,4.28157766 9.47329956,4.20858402 9.414,4.145 C9.26995345,4.01237106 9.11619147,3.89069854 8.954,3.781 C8.612,3.545 8.372,3.314 8.234,3.082 C8.09686971,2.85778285 8.02484912,2.59982451 8.026,2.337 C8.026,2.03 8.102,1.757 8.256,1.515 C8.409,1.274 8.626,1.086 8.911,0.951 C9.194,0.817 9.519,0.75 9.888,0.75 C10.424,0.75 10.915,0.868 11.361,1.103 L10.956,1.933 C10.571,1.758 10.215,1.67 9.888,1.67 C9.70634541,1.66190487 9.52772294,1.71861041 9.384,1.83 C9.25462885,1.93239204 9.18152523,2.09010291 9.187,2.255 C9.187,2.4 9.228,2.527 9.31,2.635 C9.392,2.743 9.574,2.886 9.859,3.065 C10.157,3.255 10.382,3.465 10.529,3.694 C10.678,3.924 10.753,4.192 10.753,4.499 Z M14.298,4.744 L12.544,4.744 L11.906,5.985 L10.72,5.985 L13.56,0.75 L14.943,0.75 L15.488,5.985 L14.388,5.985 L14.298,4.745 L14.298,4.744 Z M14.242,3.817 L14.146,2.569 C14.1215505,2.26895271 14.1092071,1.96804171 14.109,1.667 L14.109,1.538 C13.999,1.824 13.865,2.126 13.704,2.444 L13.007,3.817 L14.242,3.817 Z" id="Shape"></path>
                </g>
            </g>
        </g>
    </g>
</svg>