<svg xmlns="http://www.w3.org/2000/svg" xmlns:xlink="http://www.w3.org/1999/xlink" width="74" height="18" viewBox="0 0 74 18">
    <defs>
        <path id="a" d="M.01.15h73.563V18H.011z"/>
    </defs>
    <g fill="none" fill-rule="evenodd">
        <path fill="#238EC2" d="M57.127 7.93c-.222 1.452-1.33 1.452-2.403 1.452h-.61l.427-2.711a.337.337 0 0 1 .334-.285h.28c.73 0 1.42 0 1.775.416.213.249.277.618.197 1.128zM56.66 4.14h-4.046a.562.562 0 0 0-.555.475l-1.636 10.373a.337.337 0 0 0 .333.39h2.076c.193 0 .358-.141.388-.333l.464-2.94a.562.562 0 0 1 .555-.475h1.28c2.665 0 4.203-1.29 4.605-3.845.181-1.118.007-1.997-.516-2.611-.575-.676-1.595-1.034-2.948-1.034z"/>
        <path fill="#253667" d="M28.273 7.93c-.222 1.452-1.33 1.452-2.403 1.452h-.61l.427-2.711a.337.337 0 0 1 .334-.285h.28c.73 0 1.42 0 1.775.416.213.249.277.618.197 1.128zm-.467-3.789H23.76a.562.562 0 0 0-.555.475L21.57 14.989a.337.337 0 0 0 .333.39h1.932a.562.562 0 0 0 .555-.475l.442-2.798a.562.562 0 0 1 .555-.475h1.28c2.664 0 4.202-1.29 4.604-3.845.181-1.118.008-1.997-.516-2.611-.575-.676-1.595-1.034-2.948-1.034zM37.198 11.654c-.187 1.107-1.066 1.85-2.187 1.85-.562 0-1.012-.181-1.3-.523-.287-.34-.395-.823-.304-1.361.174-1.097 1.067-1.864 2.17-1.864.55 0 .997.183 1.292.528.297.348.414.834.329 1.37zm2.7-3.77H37.96a.337.337 0 0 0-.333.284l-.085.542-.136-.197c-.42-.609-1.354-.812-2.288-.812-2.14 0-3.968 1.622-4.324 3.896-.185 1.135.078 2.22.721 2.976.591.696 1.435.985 2.44.985 1.725 0 2.682-1.108 2.682-1.108l-.087.539a.337.337 0 0 0 .333.39h1.745a.562.562 0 0 0 .555-.475l1.047-6.631a.337.337 0 0 0-.333-.39z"/>
        <path fill="#238EC2" d="M66.051 11.654c-.187 1.107-1.065 1.85-2.186 1.85-.562 0-1.012-.181-1.3-.523-.287-.34-.395-.823-.304-1.361.174-1.097 1.067-1.864 2.17-1.864.55 0 .997.183 1.292.528.297.348.413.834.328 1.37zm2.7-3.77h-1.937a.337.337 0 0 0-.333.284l-.085.542-.136-.197c-.42-.609-1.354-.812-2.288-.812-2.14 0-3.968 1.622-4.324 3.896-.185 1.135.078 2.22.721 2.976.591.696 1.435.985 2.44.985 1.725 0 2.682-1.108 2.682-1.108l-.087.539a.337.337 0 0 0 .333.39h1.745a.562.562 0 0 0 .555-.475l1.047-6.631a.337.337 0 0 0-.333-.39z"/>
        <g>
            <mask id="b" fill="#fff">
                <use xlink:href="#a"/>
            </mask>
            <path fill="#253667" d="M50.215 7.883h-1.948a.562.562 0 0 0-.464.247l-2.686 3.955-1.139-3.8a.562.562 0 0 0-.538-.402h-1.914a.337.337 0 0 0-.32.446l2.145 6.293-2.017 2.846a.337.337 0 0 0 .275.532h1.946c.184 0 .356-.09.462-.242l6.475-9.345a.337.337 0 0 0-.277-.53" mask="url(#b)"/>
            <path fill="#238EC2" d="M71.034 4.426l-1.66 10.563a.337.337 0 0 0 .333.39h1.67a.562.562 0 0 0 .555-.475L73.57 4.531a.337.337 0 0 0-.333-.39h-1.869a.337.337 0 0 0-.333.285M13.633 4.684c.218-1.388-.002-2.333-.753-3.189C12.053.553 10.56.15 8.648.15H3.1a.794.794 0 0 0-.784.67L.006 15.47c-.046.289.178.55.47.55h3.425l-.236 1.5a.417.417 0 0 0 .412.481h2.886a.695.695 0 0 0 .686-.586l.029-.147.544-3.449.035-.19a.694.694 0 0 1 .686-.586h.431c2.797 0 4.987-1.137 5.627-4.423.268-1.373.13-2.52-.578-3.325a2.752 2.752 0 0 0-.79-.61" mask="url(#b)"/>
            <path fill="#20274F" d="M13.633 4.684c.218-1.388-.002-2.333-.753-3.189C12.053.553 10.56.15 8.648.15H3.1a.794.794 0 0 0-.784.67L.006 15.47c-.046.289.178.55.47.55h3.425l.86-5.455-.026.17c.061-.385.39-.67.781-.67h1.628c3.197 0 5.7-1.298 6.432-5.055a8.76 8.76 0 0 0 .057-.325" mask="url(#b)"/>
            <path fill="#253667" d="M5.686 4.703a.695.695 0 0 1 .686-.586h4.349c.515 0 .996.033 1.435.104a6.295 6.295 0 0 1 .711.158 4.35 4.35 0 0 1 .766.305c.218-1.388-.002-2.333-.753-3.189C12.053.553 10.56.15 8.648.15H3.1a.794.794 0 0 0-.784.67L.006 15.47c-.046.289.178.55.47.55h3.425L5.686 4.703" mask="url(#b)"/>
        </g>
    </g>
</svg>
